<mxfile host="app.diagrams.net" modified="2022-03-14T06:19:10.177Z" agent="5.0 (Windows NT 6.1; Win64; x64) AppleWebKit/537.36 (KHTML, like Gecko) Chrome/99.0.4844.51 Safari/537.36 Edg/99.0.1150.39" etag="-aR7P4xEqakKpGr0n-qF" version="17.1.1" type="github">
  <diagram name="Page-1" id="03018318-947c-dd8e-b7a3-06fadd420f32">
    <mxGraphModel dx="2522" dy="1612" grid="1" gridSize="10" guides="1" tooltips="1" connect="1" arrows="1" fold="1" page="1" pageScale="1" pageWidth="1100" pageHeight="850" background="#ffffff" math="0" shadow="0">
      <root>
        <mxCell id="0" />
        <mxCell id="1" parent="0" />
        <mxCell id="NJrixmbgVExdX_w1-1Mh-1" value="header" style="rounded=0;whiteSpace=wrap;html=1;fontSize=20;strokeColor=#FF0303;strokeWidth=5;" parent="1" vertex="1">
          <mxGeometry width="1100" height="80" as="geometry" />
        </mxCell>
        <mxCell id="NJrixmbgVExdX_w1-1Mh-2" value=".welcome" style="rounded=0;whiteSpace=wrap;html=1;fontSize=20;strokeWidth=5;" parent="1" vertex="1">
          <mxGeometry y="80" width="1100" height="180" as="geometry" />
        </mxCell>
        <mxCell id="NJrixmbgVExdX_w1-1Mh-3" value="&lt;font style=&quot;font-size: 20px&quot;&gt;.container&lt;/font&gt;" style="rounded=0;whiteSpace=wrap;html=1;strokeColor=#EE03FF;strokeWidth=5;" parent="1" vertex="1">
          <mxGeometry y="260" width="1100" height="680" as="geometry" />
        </mxCell>
        <mxCell id="NJrixmbgVExdX_w1-1Mh-5" value="aside" style="rounded=0;whiteSpace=wrap;html=1;fontSize=20;strokeColor=#9933FF;strokeWidth=5;" parent="1" vertex="1">
          <mxGeometry x="10" y="270" width="230" height="540" as="geometry" />
        </mxCell>
        <mxCell id="NJrixmbgVExdX_w1-1Mh-6" value=".aside search" style="rounded=0;whiteSpace=wrap;html=1;fontSize=20;strokeColor=#9933FF;strokeWidth=5;" parent="1" vertex="1">
          <mxGeometry x="20" y="280" width="210" height="60" as="geometry" />
        </mxCell>
        <mxCell id="NJrixmbgVExdX_w1-1Mh-7" value="select" style="rounded=0;whiteSpace=wrap;html=1;fontSize=20;strokeColor=#330000;strokeWidth=5;" parent="1" vertex="1">
          <mxGeometry x="20" y="350" width="210" height="60" as="geometry" />
        </mxCell>
        <mxCell id="NJrixmbgVExdX_w1-1Mh-8" value=".accordian header" style="rounded=0;whiteSpace=wrap;html=1;fontSize=20;strokeColor=#FF99FF;strokeWidth=5;" parent="1" vertex="1">
          <mxGeometry x="20" y="420" width="210" height="60" as="geometry" />
        </mxCell>
        <mxCell id="NJrixmbgVExdX_w1-1Mh-10" value=".accordian body" style="rounded=0;whiteSpace=wrap;html=1;fontSize=20;strokeColor=#CC99FF;strokeWidth=5;" parent="1" vertex="1">
          <mxGeometry x="20" y="490" width="210" height="230" as="geometry" />
        </mxCell>
        <mxCell id="NJrixmbgVExdX_w1-1Mh-11" value="a" style="rounded=0;whiteSpace=wrap;html=1;fontSize=20;strokeColor=#808080;strokeWidth=5;" parent="1" vertex="1">
          <mxGeometry x="20" y="730" width="210" height="70" as="geometry" />
        </mxCell>
        <mxCell id="NJrixmbgVExdX_w1-1Mh-12" value="aside" style="text;html=1;strokeColor=none;fillColor=none;align=center;verticalAlign=middle;whiteSpace=wrap;rounded=0;fontSize=20;" parent="1" vertex="1">
          <mxGeometry x="190" y="840" width="60" height="30" as="geometry" />
        </mxCell>
        <mxCell id="NJrixmbgVExdX_w1-1Mh-18" value="" style="curved=1;endArrow=classic;html=1;rounded=0;fontSize=20;exitX=0.5;exitY=1;exitDx=0;exitDy=0;entryX=0;entryY=0.5;entryDx=0;entryDy=0;" parent="1" source="NJrixmbgVExdX_w1-1Mh-5" target="NJrixmbgVExdX_w1-1Mh-12" edge="1">
          <mxGeometry width="50" height="50" relative="1" as="geometry">
            <mxPoint x="130" y="860" as="sourcePoint" />
            <mxPoint x="180" y="810" as="targetPoint" />
            <Array as="points">
              <mxPoint x="160" y="820" />
              <mxPoint x="180" y="860" />
              <mxPoint x="130" y="810" />
            </Array>
          </mxGeometry>
        </mxCell>
        <mxCell id="NJrixmbgVExdX_w1-1Mh-20" value="section" style="rounded=0;whiteSpace=wrap;html=1;fontSize=20;strokeColor=#FF0000;strokeWidth=5;" parent="1" vertex="1">
          <mxGeometry x="250" y="270" width="730" height="620" as="geometry" />
        </mxCell>
        <mxCell id="NJrixmbgVExdX_w1-1Mh-21" value=".mentoringcard" style="rounded=0;whiteSpace=wrap;html=1;fontSize=20;strokeColor=#0022FF;strokeWidth=5;" parent="1" vertex="1">
          <mxGeometry x="260" y="280" width="170" height="190" as="geometry" />
        </mxCell>
        <mxCell id="NJrixmbgVExdX_w1-1Mh-22" value=".mentoringcard" style="rounded=0;whiteSpace=wrap;html=1;fontSize=20;strokeColor=#0022FF;strokeWidth=5;" parent="1" vertex="1">
          <mxGeometry x="440" y="280" width="170" height="190" as="geometry" />
        </mxCell>
        <mxCell id="NJrixmbgVExdX_w1-1Mh-23" value=".mentoringcard" style="rounded=0;whiteSpace=wrap;html=1;fontSize=20;strokeColor=#0022FF;strokeWidth=5;" parent="1" vertex="1">
          <mxGeometry x="620" y="280" width="170" height="190" as="geometry" />
        </mxCell>
        <mxCell id="NJrixmbgVExdX_w1-1Mh-24" value=".mentoringcard" style="rounded=0;whiteSpace=wrap;html=1;fontSize=20;strokeColor=#0022FF;strokeWidth=5;" parent="1" vertex="1">
          <mxGeometry x="800" y="280" width="170" height="190" as="geometry" />
        </mxCell>
        <mxCell id="NJrixmbgVExdX_w1-1Mh-25" value=".banner" style="rounded=0;whiteSpace=wrap;html=1;fontSize=20;strokeColor=#0022FF;strokeWidth=5;" parent="1" vertex="1">
          <mxGeometry y="940" width="1100" height="240" as="geometry" />
        </mxCell>
        <mxCell id="NJrixmbgVExdX_w1-1Mh-26" value="footer" style="rounded=0;whiteSpace=wrap;html=1;fontSize=20;strokeColor=#E600FF;strokeWidth=5;" parent="1" vertex="1">
          <mxGeometry y="1180" width="1100" height="260" as="geometry" />
        </mxCell>
      </root>
    </mxGraphModel>
  </diagram>
</mxfile>
